# xmcd
# Track frame offsets:
# 150
# 11214
# 26899
# 41774
# 53940
# 68298
# 79760
# 93772
# 106640
# 121956
# 133907
# 153485
# 167942
# 180653
#
# Disc length: 2608 seconds
# Revision: 0
# Processed by: cddbd v1.4PL0 Copyright (c) Steve Scherf et al.
# Submitted via: VisiTrax 2.9.5.180 - For more info visit www.synapsa.com
#
DISCID=b30a2e0e
DTITLE=Leona Williams - Honorary Texan
DYEAR=2003
DGENRE=Country
TTITLE0=Yeas ma'm, he found me in a honky tonk
TTITLE1=Don't leave the leaving up to me
TTITLE2=Dance till the cows come home
TTITLE3=You'd be home by now
TTITLE4=I've called to say I love you (one more time)
TTITLE5=Arms of a fool
TTITLE6=Things I almost had with you
TTITLE7=Don't sing me no songs about Texas
TTITLE8=I never go around mirrors
TTITLE9=Memories to burn
TTITLE10=Nobody's darlin' but mine
TTITLE11=Goodbyes come hard for me
TTITLE12=I walked from Dallas
TTITLE13=Misery
EXTD=
EXTT0=
EXTT1=
EXTT2=
EXTT3=
EXTT4=
EXTT5=
EXTT6=
EXTT7=
EXTT8=
EXTT9=
EXTT10=
EXTT11=
EXTT12=
EXTT13=
PLAYORDER=
